<?xml version="1.0" encoding="utf-8"?>
<!-- Generator: Adobe Illustrator 18.1.1, SVG Export Plug-In . SVG Version: 6.00 Build 0)  -->
<svg version="1.1" id="Layer_1" xmlns="http://www.w3.org/2000/svg" xmlns:xlink="http://www.w3.org/1999/xlink" x="0px" y="0px"
	 viewBox="0 0 97.7 79.2" enable-background="new 0 0 97.7 79.2" xml:space="preserve">
<g>
	<path fill="#EB3694" d="M22.9,21.3c0-0.1,0.1-0.1,0.1-0.2c0.5-1.4,1.4-2,2.9-2c5.9,0,11.9,0,17.8,0c5.6,0,11.2,0,16.8,0
		c0.2,0,0.4,0,0.7,0c-0.2,0.2-0.3,0.3-0.4,0.4c-1.6,1.6-3.2,3.2-4.8,4.8c-0.3,0.3-0.5,0.4-0.9,0.4c-8.6,0-17.2,0-25.9,0
		c-0.2,0-0.4,0-0.6,0c0,11.5,0,22.9,0,34.4c11.4,0,22.9,0,34.4,0c0-0.2,0-0.4,0-0.7c0-4.4,0-8.9,0-13.3c0-0.5,0.1-0.8,0.5-1.1
		c1.6-1.6,3.1-3.1,4.7-4.7c0.1-0.1,0.3-0.2,0.5-0.4c0,0.3,0,0.5,0,0.6c0,7.4,0,14.7,0,22.1c0,2-1.1,3.2-3.2,3.2c-13,0-25.9,0-38.9,0
		c-1.8,0-3-0.5-3.7-2.2C22.9,48.8,22.9,35.1,22.9,21.3z"/>
	<path fill="#EB3694" d="M79.6,19.4c-0.4,1.4-1.3,2.4-2.3,3.4c-8.8,8.8-17.6,17.6-26.4,26.4c-1,1-2.2,1.6-3.7,1.5
		c-1.1-0.1-2.1-0.5-2.8-1.3c-3-3-6-5.9-9-9c-2.5-2.5-1.3-6.5,2.1-7.3c1.6-0.4,3,0.1,4.2,1.3c1.8,1.8,3.6,3.6,5.4,5.4
		c0.1,0.1,0.3,0.3,0.6,0.5c0.1-0.2,0.2-0.4,0.4-0.6c8-8,16-16,23.9-24c1.3-1.3,2.8-1.9,4.6-1.3c1.4,0.4,2.3,1.4,2.8,2.8
		c0.1,0.2,0.1,0.4,0.2,0.6C79.6,18.5,79.6,18.9,79.6,19.4z"/>
</g>
</svg>
