<?xml version="1.0" encoding="utf-8"?>
<!-- Generator: Adobe Illustrator 18.1.1, SVG Export Plug-In . SVG Version: 6.00 Build 0)  -->
<svg version="1.1" id="Layer_1" xmlns="http://www.w3.org/2000/svg" xmlns:xlink="http://www.w3.org/1999/xlink" x="0px" y="0px"
	 viewBox="0 0 97.7 79.2" enable-background="new 0 0 97.7 79.2" xml:space="preserve">
<g>
	<path fill="#EB3694" d="M48.3,11.7c1.3,0,2.5,0,3.8,0c0.7,0.1,1.3,0.2,2,0.3c5.6,0.8,10.5,3,14.8,6.8c5.1,4.5,8.3,10.2,9.3,17
		c0.1,0.8,0.2,1.6,0.3,2.4c0,1.3,0,2.5,0,3.8c-0.1,0.7-0.2,1.3-0.3,2c-0.8,5.6-3,10.5-6.8,14.7C67,63.9,61.3,67,54.5,68.1
		c-0.8,0.1-1.6,0.2-2.4,0.3c-1.3,0-2.5,0-3.8,0c-0.7-0.1-1.3-0.2-2-0.3c-5.6-0.8-10.5-3-14.8-6.8c-5.1-4.5-8.3-10.2-9.3-17
		C22,43.6,22,42.8,21.8,42c0-1.3,0-2.5,0-3.8c0.1-0.7,0.2-1.3,0.3-2c0.8-5.6,3-10.5,6.8-14.7c4.6-5.2,10.2-8.3,17.1-9.4
		C46.7,11.9,47.5,11.8,48.3,11.7z M50.2,15.9C36.9,15.8,26.1,26.6,26,40c-0.1,13.3,10.8,24.2,24.2,24.2c13.3,0,24.1-10.7,24.2-24.1
		C74.5,26.8,63.6,15.9,50.2,15.9z"/>
	<path fill="#EB3694" d="M50.9,40.1c0.3,0,0.5,0,0.7,0c2.7,0,5.4,0,8.1,0c1.3,0,2.2,0.8,2.2,2c0,1.2-0.8,2.1-2,2.2
		c-0.1,0-0.3,0-0.4,0c-3.5,0-6.9,0-10.4,0c-1.2,0-2-0.5-2.3-1.5c-0.1-0.2-0.1-0.5-0.1-0.8c0-4.7,0-9.4,0-14.1c0-1.7,1.5-2.6,2.7-2.2
		c0.8,0.3,1.4,1,1.4,1.8c0,0.5,0,1.1,0,1.6c0,3.4,0,6.8,0,10.2C50.9,39.5,50.9,39.8,50.9,40.1z"/>
</g>
</svg>
