<?xml version="1.0" encoding="utf-8"?>
<!-- Generator: Adobe Illustrator 16.0.3, SVG Export Plug-In . SVG Version: 6.00 Build 0)  -->
<!DOCTYPE svg PUBLIC "-//W3C//DTD SVG 1.1//EN" "http://www.w3.org/Graphics/SVG/1.1/DTD/svg11.dtd">
<svg version="1.1" id="Capa_1" xmlns="http://www.w3.org/2000/svg" xmlns:xlink="http://www.w3.org/1999/xlink" x="0px" y="0px"
	 width="1436.658px" height="717.071px" viewBox="0 0 1436.658 717.071" enable-background="new 0 0 1436.658 717.071"
	 xml:space="preserve">
<g>
	<g>
		<path fill-rule="evenodd" clip-rule="evenodd" fill="#EF4EDC" d="M499.53,324.331c-8.751,6.775-17.624,13.158-25.942,20.197
			c-14.561,12.32-26.702,26.887-37.69,42.426c-2.137,3.021-2.63,5.818,0.673,8.701c5.596,4.881,9.344,6.045,13.102,3.813
			c17.871-10.625,35.983-20.861,53.619-31.861c12.093-7.541,23.663-15.943,35.263-24.248c24.302-17.398,51.043-29.792,79.038-39.93
			c10.927-3.957,22.005-6.297,33.462-7.176c1.578-0.12,3.896,1.027,4.838,2.334c6.288,8.722,5.095,18.402,3.237,28.178
			c-0.69,3.633-1.479,7.475-0.991,11.055c0.792,5.818,6.401,8.799,11.809,6.18c5.589-2.707,11.306-5.713,15.915-9.781
			c16.31-14.391,35.494-23.055,55.917-29.441c5.809-1.816,11.08,0.946,13.707,6.637c2.965,6.422,7.019,7.971,13.211,4.424
			c17.301-9.911,33.912-6.65,50.174,2.438c4.164,2.328,7.641,5.961,11.909,7.996c2.552,1.217,6.027,0.564,9.09,0.623
			c2.277,0.043,4.632-0.504,6.816-0.082c2.128,0.412,5.996-0.168,5.238,3.605c-0.557,2.77-2.122,6.557-4.295,7.531
			c-4.756,2.131-10.131,3.486-15.349,3.875c-17.886,1.334-35.29-2.684-51.532-9.145c-9.377-3.73-15.303-1.754-22.518,3.068
			c-8.694,5.811-18.145,10.164-28.911,10.629c-7.371,0.318-11.215-3.475-13.91-9.965c-1.489-3.582-3.52-4.85-6.51-4.604
			c-4.929,0.406-10.113,0.736-14.628,2.521c-9.452,3.738-17.919,9.129-25.225,16.539c-6.75,6.848-14.012,13.387-21.881,18.867
			c-5.283,3.68-11.943,5.49-18.158,7.643c-1.381,0.479-4.528-0.654-5.065-1.852c-2.028-4.527-4.268-8.799-2.247-14.557
			c3.448-9.824,5.849-20.055,8.093-30.248c1.634-7.424-5.62-15.923-12.843-14.299c-8.981,2.021-17.769,5.393-26.239,9.098
			c-27.398,11.988-52.213,28.324-76.631,45.479c-16.715,11.742-34.413,22.119-51.93,32.678
			c-11.203,6.754-22.827,12.82-34.399,18.936c-1.511,0.799-4.065,0.59-5.746-0.102c-3.68-1.512-7.036-3.789-10.655-5.475
			c-8.324-3.875-9.423-12.879-3.276-19.932c4.376-5.02,7.55-11.137,10.934-16.955c2.181-3.75,0.355-7.707-2.349-9.832
			c-1.642-1.291-5.68-0.652-8.121,0.367c-24.686,10.293-46.08,25.922-66.217,43.07c-19.233,16.379-37.441,33.951-52.81,54.242
			c-5.104,6.74-11.535,12.467-16.737,19.141c-9.286,11.916-17.7,24.525-27.214,36.248c-11.417,14.068-23.196,27.893-35.554,41.137
			c-17.346,18.588-34.626,37.352-53.285,54.578c-26.29,24.271-55.783,44.014-90.17,55.377c-2.896,0.955-6.259,1.045-9.338,0.773
			c-4.396-0.387-6.761-4.348-6.65-9.012c0.197-8.352,4.888-14.832,9.022-21.328c10.435-16.396,20.727-32.963,32.365-48.494
			c12.944-17.275,26.608-34.137,41.28-49.951c12.357-13.32,26.608-24.881,40.021-37.221c0.409,0.395,0.818,0.789,1.228,1.184
			c-0.753,1.174-1.66,2.281-2.215,3.541c-0.536,1.217-0.709,2.592-1.188,4.475c1.519-0.26,2.271-0.172,2.722-0.498
			c22.743-16.492,45.726-32.672,68.097-49.656c17.605-13.367,34.816-27.311,51.542-41.764c19.747-17.063,40.353-33.27,57.497-53.148
			c6.94-8.047,13.53-16.4,20.194-24.682c0.727-0.902,0.893-2.256,1.584-4.115c-2.099,0.449-3.298,0.705-4.892,1.045
			c0.126-0.873,0.018-1.598,0.322-2.031c6.026-8.543,12.614-16.742,18.037-25.65c7.05-11.582,13.945-23.379,19.51-35.714
			c6.547-14.509,12.391-29.45,17.044-44.661c3.691-12.065,12.07-21.219,17.09-32.374c6.88-15.288,15.173-30.098,17.868-46.833
			c2.579-16.018,5.779-32.279,1.922-48.46c-1.621-6.797-5.422-13.107-8.546-19.484c-0.616-1.257-2.58-2.047-4.084-2.645
			c-18.26-7.266-37.025-7.612-55.957-3.49c-7.777,1.693-15.541,3.773-22.994,6.532c-5.304,1.963-10.061,5.391-15.094,8.103
			c-5.814,3.133-11.693,6.146-17.49,9.311c-3.357,1.833-6.608,3.862-9.907,5.802c-0.41-0.504-0.82-1.009-1.23-1.514
			c1.196-1.326,2.185-2.958,3.62-3.929c10.877-7.356,21.489-15.195,32.849-21.728c26.082-14.999,52.464-29.417,80.121-41.495
			c13.307-5.812,26.554-10.308,41.095-11.084c7.808-0.416,13.208,3.086,16.78,9.367c6.279,11.038,5.662,23.291,3.953,35.123
			c-1.943,13.454-4.394,27.025-8.558,39.92c-5.388,16.682-12.307,32.91-19.284,49.023c-5.981,13.814-12.614,27.38-19.63,40.703
			c-5.634,10.699-12.073,20.995-18.513,31.245c-9.249,14.723-19.561,28.828-28.061,43.96c-9.221,16.416-17.487,33.444-25.014,50.71
			c-5.004,11.48-8.024,23.83-11.829,35.822c-0.886,2.793,3.809,10.975,6.611,11.518c1.117,0.217,2.985-0.123,3.551-0.904
			c4.462-6.166,11.664-8.025,17.694-11.732c14.859-9.135,29.369-18.861,44.466-27.576c10.044-5.799,20.822-10.34,31.357-15.26
			c1.984-0.926,4.746-2.738,5.904,1.496c0.148,0.541,2.501,0.945,3.649,0.664C489.9,327.179,494.664,325.714,499.53,324.331z
			 M288.715,453.325c-2.564,0.385-3.565,0.324-4.376,0.689c-8.174,3.682-16.541,7.014-24.43,11.238
			c-38.388,20.555-71.247,47.893-97.511,82.617c-9.344,12.354-16.635,26.283-24.486,39.713c-1.019,1.744-0.669,5.934,0.65,6.992
			c1.782,1.428,5.145,1.303,7.774,1.107c1.67-0.125,3.271-1.539,4.849-2.465c40-23.477,71.694-55.867,99.552-92.453
			c8.956-11.762,18.521-23.061,27.79-34.584C281.655,462.292,284.728,458.36,288.715,453.325z"/>
		<path fill-rule="evenodd" clip-rule="evenodd" fill="#EF4EDC" d="M1051.827,46.194c-0.889,1.737-1.232,2.765-1.857,3.579
			c-11.941,15.574-24.236,30.889-35.805,46.734c-14.793,20.264-29.008,40.95-43.469,61.457
			c-14.554,20.64-19.339,43.938-17.721,68.629c0.469,7.166,3.326,14.185,5.22,21.236c0.282,1.051,1.209,1.979,1.974,2.843
			c7.74,8.75,26,10.007,35.158,2.952c9.016-6.945,18.997-12.098,30.191-14.956c7.37-1.881,14.392-5.097,21.729-7.137
			c15.46-4.299,29.024,0.123,40.383,10.747c8.057,7.536,21.457,9.295,30.706,2.953c2.657-1.822,5.541-3.314,8.321-4.957
			c0.317,0.383,0.636,0.766,0.953,1.149c-0.738,0.818-1.359,1.799-2.233,2.43c-19.64,14.187-36.161,31.386-49.106,51.84
			c-3.516,5.555-5.948,11.888-8.173,18.114c-0.766,2.145,0.294,5.16,1.099,7.584c0.891,2.688,2.976,3.322,5.6,1.865
			c10.464-5.813,21.327-10.998,31.351-17.484c19.656-12.721,39.072-25.842,58.16-39.398c14.346-10.188,27.728-21.732,42.07-31.924
			c20.209-14.362,42.333-25.041,66.246-31.886c2.837-0.812,4.354-0.206,5.335,2.594c2.944,8.417,3.416,16.298-2.297,24.122
			c-3.978,5.447-7.229,11.548-9.994,17.72c-2.33,5.202,0.401,11.627,5.016,14.336c4.535,2.663,10.557,1.633,14.746-2.143
			c12.802-11.54,20.688-25.815,24.248-42.605c0.187-0.882,1.223-1.585,1.863-2.371c0.586,1.007,1.861,2.193,1.653,2.992
			c-2.254,8.652-3.558,17.826-7.443,25.713c-5.757,11.685-13.869,22.273-25.723,28.521c-8.147,4.294-16.968,7.61-25.836,10.145
			c-7.335,2.097-15.526-6.148-16.056-14.772c-0.378-6.157,1.825-11.343,5.591-16.043c4.669-5.827,9.858-11.345,13.729-17.666
			c3.142-5.128,5.2-11.104,6.743-16.966c1.206-4.585-2.885-3.696-5.103-2.814c-6.797,2.704-13.539,5.606-20.086,8.865
			c-17.781,8.852-34.628,19.237-50.05,31.807c-11.214,9.14-22.028,18.789-33.499,27.588c-10.141,7.778-20.636,15.194-31.525,21.872
			c-15.148,9.288-30.615,18.109-46.357,26.348c-5.552,2.904-12.229,4.162-18.545,4.959c-5.607,0.707-8.023-3.318-6.241-8.672
			c2.299-6.908,5.49-13.661,6.718-20.754c2.581-14.926-1.574-16.162-15.268-13.6c-7.617,1.425-15.029,4.33-22.293,7.182
			c-32.79,12.873-65.579,25.756-98.203,39.039c-31.567,12.854-63.05,25.932-94.344,39.434c-18.657,8.049-36.921,17.02-55.289,25.73
			c-20.225,9.594-40.323,19.451-60.553,29.033c-24.14,11.434-47.919,23.512-71.018,36.969
			c-16.639,9.695-33.791,18.504-50.592,27.928c-24.509,13.746-48.958,27.6-73.336,41.576c-18.59,10.656-37.183,21.322-55.494,32.445
			c-18.627,11.314-37.063,22.965-55.295,34.906c-12.801,8.383-24.813,17.984-37.729,26.17c-18.116,11.482-36.591,22.428-55.29,32.93
			c-3.521,1.979-8.845,1.268-13.275,0.949c-4.047-0.289-3.521-2.805-1.124-5.02c3.915-3.615,7.747-7.357,11.945-10.619
			c17.347-13.477,34.813-26.799,52.253-40.154c1.042-0.797,2.247-1.383,3.824-2.338c2.53,4.605,5.333,2.646,8.598,0.633
			c30.297-18.691,60.649-37.297,91.049-55.82c4.11-2.506,8.63-4.326,12.859-6.646c8.321-4.566,17.098-8.412,23.239-16.248
			c1.752-2.234,4.624-3.766,7.239-5.125c32.312-16.807,64.619-33.621,97.033-50.227c26.159-13.4,52.212-27.049,78.775-39.607
			c24.01-11.35,48.646-21.375,73.009-31.979c29.218-12.713,58.414-25.48,87.667-38.111c25.016-10.801,50.127-21.381,75.147-32.172
			c28.543-12.311,57-24.819,85.56-37.092c10.987-4.721,22.137-9.067,33.245-13.503c4.524-1.807,6.915-6.455,6.338-12.837
			c-0.413-4.576-3.754-8.429-8.872-8.534c-5.592-0.114-11.343,0.383-16.787,1.642c-13.913,3.217-27.983,6.161-41.456,10.773
			c-17.981,6.156-36.166,6.846-54.702,5.221c-8.341-0.731-13.174-6.418-13.241-14.973c-0.01-1.296,0.224-3.212-0.494-3.776
			c-3.056-2.403-1.388-4.934-0.355-7.176c6.532-14.183,12.723-28.556,19.984-42.363c10.488-19.942,21.237-39.793,32.93-59.042
			c8.78-14.454,18.591-28.398,29.077-41.672c14.109-17.86,29.246-34.913,44.096-52.179c3.133-3.643,6.907-6.74,10.458-10.011
			C1049.306,46.635,1050.207,46.648,1051.827,46.194z"/>
		<path fill-rule="evenodd" clip-rule="evenodd" fill="#EF4EDC" d="M1208.89,658.679c1.418,0.299,2.826,0.66,4.256,0.887
			c5.462,0.865,9.16,4.02,10.809,9.139c1.739,5.4-0.397,10.115-4.666,13.258c-10.921,8.043-22.962,13.381-36.908,12.748
			c-3.283-0.148-6.535-1.043-9.796-1.625c-4.686-0.838-7.028-3.92-8.189-8.9c2.563,0,4.877,0,8.23,0
			c0.582-6.912,1.442-13.746,1.646-20.6c0.168-5.629-0.487-11.279-0.694-16.924c-0.118-3.195-1.527-4.047-4.536-3.088
			c-2.029,0.646-4.209,1.211-6.295,1.131c-1.034-0.039-2.589-1.479-2.837-2.535c-0.21-0.896,0.866-2.551,1.825-3.162
			c1.503-0.957,3.445-1.193,5.096-1.961c2.614-1.219,5.141-2.625,8.369-4.295c9.542,0.98,20.275,2.068,31.004,3.205
			c1.147,0.121,2.275,0.492,3.394,0.811c5.344,1.523,8.989,5.357,9.245,9.906c0.283,5.039-3.51,7.162-7.029,9.402
			c-0.934,0.596-2.004,0.975-3.012,1.453C1208.831,657.911,1208.861,658.294,1208.89,658.679z M1195.867,662.827
			c-0.018,0.105-0.035,0.211-0.053,0.314c-2.494,0-5.018,0.23-7.468-0.098c-1.183-0.158-2.225-1.363-3.331-2.096
			c0.989-0.949,1.817-2.35,2.995-2.77c4.677-1.668,9.473-2.996,14.204-4.514c3.054-0.979,6.29-1.943,5.821-6.182
			c-0.488-4.42-3.008-7-7.507-7.148c-4.312-0.143-8.642,0.199-12.947-0.01c-3.011-0.148-4.188,1.086-4.508,3.91
			c-1.462,12.855-3.013,25.701-4.525,38.551c-0.309,2.621,0.697,4.102,3.502,4.254c9.513,0.516,18.521-1.279,26.989-5.689
			c3.852-2.008,5.537-5.242,5-9.455c-0.511-4.016-2.961-6.738-6.882-7.578C1203.458,663.524,1199.635,663.302,1195.867,662.827z"/>
		<path fill-rule="evenodd" clip-rule="evenodd" fill="#EF4EDC" d="M105.651,323.446c46.059-61.334,96.622-118.117,156.384-166.02
			c0.622,0.552,1.244,1.103,1.866,1.654c-1.871,2.268-3.592,4.683-5.643,6.774c-4.641,4.732-9.563,9.191-14.156,13.966
			c-10.472,10.886-20.732,21.976-31.234,32.832c-9.35,9.666-19.165,18.892-28.315,28.738
			c-12.785,13.756-24.781,28.257-37.786,41.793C133.485,297.011,119.391,310.059,105.651,323.446z"/>
		<path fill-rule="evenodd" clip-rule="evenodd" fill="#EF4EDC" d="M827.474,678.644c-1.555,1.688-2.881,3.688-4.701,5.008
			c-8.139,5.906-17.702,8.322-27.333,10.115c-10.215,1.902-20.403,1.754-30.521-1.598c-7.396-2.447-11.207-7.822-9.558-15.459
			c1.771-8.203,6.254-14.85,11.958-20.857c7.064-7.438,15.262-13.318,24.528-17.533c6.896-3.137,14.275-4.439,21.766-2
			c1.797,0.586,3.876,1.66,4.816,3.148c1.012,1.6,0.836,3.949,1.178,5.971c-1.762-0.244-3.75-0.041-5.249-0.801
			c-9.458-4.805-18.06-1.848-26.574,2.551c-10.372,5.361-15.888,14.217-18.076,25.367c-1.242,6.33,1.541,10.799,7.715,12.561
			c14.328,4.084,27.83,1.809,40.752-5.289c2.499-1.373,5.337-2.131,8.02-3.172C826.621,677.317,827.047,677.979,827.474,678.644z"/>
		<path fill-rule="evenodd" clip-rule="evenodd" fill="#EF4EDC" d="M34.799,60.395c0-9.039,0.02-17.439-0.023-25.84
			c-0.006-1.152-0.511-2.308-0.471-3.451c0.119-3.331-1.125-4.424-4.552-3.781c-1.397,0.262-3.084-1.019-4.64-1.597
			c0.978-1.311,1.744-2.886,2.979-3.875c2.162-1.731,4.521-3.275,6.976-4.556c1.377-0.718,3.183-1.231,4.673-1.01
			c7.064,1.045,14.175,2.011,21.101,3.694c8.916,2.167,16.537,6.027,18.336,16.545c0.963,5.627-1.779,9.655-4.563,13.758
			C65.388,63.877,48.762,70.511,32.68,67.153c-1.135-0.237-2.652-0.245-3.28-0.973c-1.28-1.482-2.075-3.384-3.069-5.112
			c1.645-0.431,3.276-0.932,4.942-1.257C31.87,59.695,32.551,60,34.799,60.395z M40.301,51.503c0,2.076-0.024,2.905,0.003,3.733
			c0.221,6.675,0.912,7.275,7.292,5.529c8.528-2.334,15.014-7.43,19.846-14.833c3.968-6.079,3.004-14.649-3.423-17.667
			c-5.349-2.511-11.661-3.028-17.586-4.231c-2.931-0.596-4.223,1.137-4.42,3.928C41.429,36.224,40.813,44.483,40.301,51.503z"/>
		<path fill-rule="evenodd" clip-rule="evenodd" fill="#EF4EDC" d="M1075.82,664.372c0-7.697-0.093-15.775,0.053-23.85
			c0.048-2.645,0.714-5.277,1.098-7.916c2.336,0.494,5.388,0.266,6.814,1.678c1.545,1.529,2.276,4.627,2.149,6.977
			c-0.698,12.916-1.861,25.809-2.647,38.723c-0.21,3.457,0.343,6.959,0.549,10.441c0.159,2.705-0.665,4.604-3.779,4.635
			c-2.883,0.027-4.058-1.227-4.048-4.273c0.015-4.49-1.39-5.084-5.436-3.156c-4.749,2.266-9.497,4.6-14.43,6.396
			c-5.274,1.92-9.305-0.9-12.755-4.563c-2.964-3.146-2.238-6.434-0.575-10.09c3.863-8.49,9.498-14.799,19.226-15.705
			C1066.527,663.251,1071.132,664.093,1075.82,664.372z M1066.873,668.644c-7.504-1.031-12.075,3.027-15.563,8.246
			c-2.98,4.461,0.946,10.832,6.238,11.109c6.564,0.342,11.996-2.736,16.713-6.443c1.791-1.408,1.891-5.754,1.624-8.656
			c-0.128-1.393-2.752-2.857-4.525-3.699C1069.953,668.534,1068.119,668.769,1066.873,668.644z"/>
		<path fill-rule="evenodd" clip-rule="evenodd" fill="#EF4EDC" d="M1099.843,682.737c1.659,4.574,5.183,6.551,9.277,6.096
			c6.563-0.729,13.014-2.443,19.541-3.57c1.365-0.236,2.857,0.266,4.291,0.426c-0.706,1.459-1.041,3.734-2.175,4.248
			c-10.06,4.566-20.553,6.637-31.545,4.018c-6.659-1.586-9.566-6.41-7.141-12.795c3.536-9.309,10.227-15.885,19.636-19.223
			c5.479-1.943,11.569,0.182,14.339,4.217c3.386,4.932,1.282,11.166-4.551,12.486
			C1114.458,680.239,1107.289,681.354,1099.843,682.737z M1102.01,675.472c0.165,0.561,0.33,1.121,0.495,1.682
			c4.802-0.861,9.654-1.518,14.372-2.709c1.365-0.344,2.345-2.219,3.5-3.391c-1.489-1.014-2.908-2.762-4.48-2.914
			C1109.76,667.552,1105.065,670.147,1102.01,675.472z"/>
		<path fill-rule="evenodd" clip-rule="evenodd" fill="#EF4EDC" d="M985.106,667.487c2.021,7.639,4.102,15.113,5.874,22.658
			c0.237,1.014-0.944,3.287-1.702,3.398c-1.333,0.197-3.319-0.406-4.204-1.408c-4.354-4.924-4.086-4.684-10.407-1.324
			c-6.829,3.629-14.25,4.641-21.651,1.691c-4.08-1.627-6.084-4.82-5.409-9.512c1.846-12.848,18.979-25.896,32.825-16.891
			C981.834,667.013,983.768,667.11,985.106,667.487z M971.875,668.183c-5.872,1-12.58,5.324-14.376,10.178
			c-1.295,3.5-0.722,6.547,2.953,8.463c5.897,3.076,10.686-0.059,15.231-3.027c3.443-2.25,6.467-6.09,4.556-10.031
			C978.979,671.163,974.766,669.993,971.875,668.183z"/>
		<path fill-rule="evenodd" clip-rule="evenodd" fill="#EF4EDC" d="M853.664,662.688c12.448,0.33,18.895,6.859,16.479,15.949
			c-0.817,3.072-3.162,6.363-5.762,8.219c-8.108,5.785-17.508,6.818-27.11,5.113c-7.104-1.26-10.078-12.535-5.273-19.012
			C837.784,665.157,845.913,662.69,853.664,662.688z M848.331,686.95c5.199,0.041,9.672-1.527,13.372-5.4
			c2.481-2.596,2.353-4.939,0.174-7.441c-4.487-5.154-10.319-4.783-16.101-3.459c-5.92,1.355-9.311,5.438-8.864,9.82
			c0.395,3.865,4.081,6.16,10.422,6.479C847.666,686.966,847.999,686.95,848.331,686.95z"/>
		<path fill-rule="evenodd" clip-rule="evenodd" fill="#EF4EDC" d="M1259.745,678.534c-5.802,4.84-10.08,9.08-15.045,12.24
			c-2.219,1.414-6.552,1.832-8.583,0.561c-2.043-1.281-2.74-5.148-3.408-8.025c-0.427-1.838,0.264-3.938,0.462-5.92
			c0.51-5.094,1.023-10.188,1.533-15.262c6.815-0.309,8.699,1.936,7.172,8.074c-0.68,2.729-1.144,5.547-1.326,8.35
			c-0.097,1.496,0.21,4.004,1.048,4.355c1.408,0.59,4.04,0.48,5.007-0.484c3.822-3.818,7.279-8.016,10.706-12.209
			c1.971-2.412,2.132-7.41,6.338-6.529c4.6,0.963,1.805,5.592,2.602,8.52c1.12,4.113,2.509,8.152,3.622,12.268
			c0.389,1.439,0.873,4.041,0.335,4.338c-2.357,1.301-5.033,2.24-7.69,2.604c-0.571,0.078-1.921-2.707-2.242-4.307
			C1259.803,684.769,1259.938,682.308,1259.745,678.534z"/>
		<path fill-rule="evenodd" clip-rule="evenodd" fill="#EF4EDC" d="M1358.263,659.716c7.997-0.018,13.175,3.244,14.844,8.881
			c1.642,5.547-0.72,11.814-6.587,15.318c-6.821,4.074-13.747,8.156-22.384,4.607c-7.991-3.283-10.93-11.404-6.138-18.594
			C1342.97,662.47,1350.474,659.978,1358.263,659.716z M1353.191,683.118c4.005-2.059,8.608-3.441,11.866-6.34
			c4.286-3.813,1.874-10.102-3.893-10.469c-3.829-0.244-8.029,0.379-11.563,1.83c-3.609,1.482-7.01,4.348-5.851,9.219
			C1344.877,682.089,1349.091,681.542,1353.191,683.118z"/>
		<path fill-rule="evenodd" clip-rule="evenodd" fill="#EF4EDC" d="M335.733,45.458c0.641,3.668,1.392,7.323,1.859,11.013
			c0.161,1.264-0.387,2.618-0.61,3.931c-1.285-0.484-3.259-0.606-3.737-1.516c-2.26-4.296-4.672-3.505-8.376-1.617
			c-4.036,2.059-8.647,3.4-13.15,4.022c-4.604,0.636-8.615-1.783-10.604-6.014c-1.984-4.222-0.132-8.144,2.721-11.458
			c9.194-10.685,18.621-12.191,30.349-4.514c1.503,0.984,1.816,3.783,2.682,5.74C336.487,45.184,336.11,45.321,335.733,45.458z
			 M326.937,44.66c-0.273-2.97-2.018-4.804-5.83-4.097c-4.676,0.868-8.076,3.44-10.379,7.595c-1.959,3.534-0.681,6.53,3.322,7.513
			C319.352,56.972,326.955,50.868,326.937,44.66z"/>
		<path fill-rule="evenodd" clip-rule="evenodd" fill="#EF4EDC" d="M1306.957,666.872c-2.007-0.301-3.698-0.662-5.408-0.787
			c-3.96-0.289-7.936-0.672-11.891-0.551c-1.116,0.033-2.184,1.674-3.273,2.578c0.987,0.93,1.825,2.332,2.989,2.701
			c3.162,1,6.479,1.494,9.703,2.313c4.169,1.059,7.65,3.451,8.023,7.836c0.351,4.119-2.617,6.783-6.597,7.592
			c-5.803,1.18-11.651,2.566-17.526,2.826c-4.895,0.215-8.393-2.658-9.236-9.32c2.694,0.537,5.102,0.529,7.021,1.494
			c5.039,2.531,10.215,3.129,15.483,1.531c1.61-0.488,2.78-2.428,4.152-3.703c-1.41-0.92-2.712-2.32-4.251-2.668
			c-4.367-0.99-9.025-1.006-13.184-2.488c-2.365-0.844-5.604-3.869-5.532-5.803c0.101-2.719,2.313-6.236,4.685-7.82
			c5.91-3.947,12.85-4.104,19.757-3.063C1305.667,660.112,1307.04,662.554,1306.957,666.872z"/>
		<path fill-rule="evenodd" clip-rule="evenodd" fill="#EF4EDC" d="M232.961,53.347c1.567,1.131,3.088,3.143,4.709,3.227
			c4.703,0.246,9.453-0.201,14.172-0.547c1.798-0.132,3.554-0.964,5.343-1.018c0.893-0.026,2.459,0.881,2.565,1.55
			c0.135,0.854-0.659,2.23-1.464,2.799c-7.538,5.328-24.401,4.222-31.198-1.933c-3.117-2.822-3.987-8.012-1.448-11.306
			c4.601-5.968,10.337-10.314,18.173-11.077c5.775-0.563,10.27,2.368,11.434,7.109c0.685,2.786,0.088,4.507-2.797,5.256
			c-3.996,1.038-7.955,2.228-11.972,3.171c-2.197,0.516-4.482,0.655-6.728,0.964C233.488,52.144,233.224,52.746,232.961,53.347z
			 M247.671,44.385c-4.655-3.759-10.69-1.991-13.331,3.673C238.909,46.799,242.842,45.715,247.671,44.385z"/>
		<path fill-rule="evenodd" clip-rule="evenodd" fill="#EF4EDC" d="M296.981,42.167c-2.775-0.727-4.796-1.349-6.857-1.78
			c-7.233-1.514-13.598-0.055-18.298,5.989c-2.856,3.672-1.655,7.809,2.746,9.484c5.441,2.072,10.64,1.236,15.882-1.333
			c2.174-1.065,7.08-1.408,7.299-0.813c1.331,3.618-1.85,4.855-4.496,6.318c-8.253,4.563-16.543,4.567-24.769,0.191
			c-6.806-3.621-8.049-8.754-4.063-15.372c5.558-9.227,13.122-13.077,22.847-11.717C292.2,33.824,295.6,36.177,296.981,42.167z"/>
		<path fill-rule="evenodd" clip-rule="evenodd" fill="#EF4EDC" d="M185.371,35.215c4.25,1.755,8.064,2.633,11.032,4.717
			c4.827,3.389,4.921,10.562,0.97,14.83c-6.006,6.489-13.142,9.338-21.975,7.419c-4.559-0.99-8.985-3.432-9.243-7.828
			c-0.231-3.951,1.463-9.33,4.294-11.83C174.422,39.014,180.233,37.585,185.371,35.215z M179.791,57.301
			c3.532-0.785,6.456-0.589,7.913-1.957c2.183-2.049,4.511-5.147,4.625-7.889c0.142-3.395-3.149-5.66-6.754-4.745
			c-3.177,0.806-6.454,2.221-8.969,4.254c-1.458,1.179-2.577,4.574-1.906,6.136C175.554,55.085,178.377,56.224,179.791,57.301z"/>
		<path fill-rule="evenodd" clip-rule="evenodd" fill="#EF4EDC" d="M1412.845,664.45c-8.263,0-14.569-0.074-20.868,0.086
			c-0.893,0.023-1.755,1.188-3.906,2.748c3.508,1.145,5.846,2.018,8.247,2.658c2.241,0.598,4.616,0.74,6.813,1.449
			c3.62,1.172,6.706,3.121,7.182,7.381c0.499,4.479-2.624,7.051-5.946,8.313c-6.457,2.451-13.346,3.178-19.965,0.496
			c-2.002-0.811-3.42-3.063-5.105-4.654c0.308-0.715,0.614-1.43,0.922-2.145c2.442,0.523,5.215,0.486,7.26,1.688
			c4.367,2.566,8.768,3.152,13.366,1.463c1.511-0.555,2.621-2.197,3.915-3.342c-1.264-1.176-2.346-2.971-3.826-3.404
			c-3.97-1.164-8.268-1.311-12.129-2.705c-2.605-0.941-5.613-2.85-6.794-5.164c-1.741-3.414-0.263-7.705,3.515-8.563
			c6.693-1.521,13.674-2.23,20.539-2.26C1408.073,658.485,1410.097,661.923,1412.845,664.45z"/>
		<path fill-rule="evenodd" clip-rule="evenodd" fill="#EF4EDC" d="M144.612,66.137c-3.442-0.633-6.11-0.897-8.64-1.636
			c-5.298-1.547-8.783-7.979-6.328-12.733c5.631-10.9,12.93-17.522,26.1-15.169c0.812,0.145,1.872,0.151,2.352,0.66
			c1.358,1.441,2.475,3.11,3.688,4.689c-1.623,0.357-3.275,1.116-4.863,1.002c-6.431-0.464-12.638-0.62-17.554,4.686
			c-3.938,4.251-3.134,8.906,2.227,11c4.47,1.746,8.882,1.902,13.565,0.026c2.188-0.877,5.052-0.068,7.61-0.023
			c-1.955,1.465-3.711,3.485-5.909,4.276C152.686,64.418,148.259,65.217,144.612,66.137z"/>
		<path fill-rule="evenodd" clip-rule="evenodd" fill="#EF4EDC" d="M1009.369,639.335c0,16.717-0.033,33.434,0.031,50.148
			c0.011,2.91-1.021,4.426-4.057,4.217c-3.111-0.215-4.697-1.475-4.521-4.996c0.512-10.244,0.931-20.502,0.996-30.756
			c0.042-6.449-0.708-12.898-0.911-19.354c-0.071-2.258-2.034-5.773,2.579-5.92C1008.05,632.53,1010.016,634.708,1009.369,639.335z"
			/>
		<path fill-rule="evenodd" clip-rule="evenodd" fill="#EF4EDC" d="M1310.708,663.636c8.329-2.98,8.146-2.979,8.007-10.957
			c-0.046-2.604,0.856-5.363,1.981-7.74c0.253-0.535,4.366-0.326,4.779,0.5c1.235,2.475,1.652,5.404,2.106,8.203
			c0.174,1.068-0.357,2.279-0.675,3.396c-0.989,3.48-0.34,5.016,3.819,4.242c1.426-0.266,3.218,1.438,4.843,2.24
			c-1.372,0.816-2.669,2.145-4.129,2.355c-5.941,0.863-6.79,1.963-5.805,7.738c0.64,3.752,1.337,7.594,1.127,11.346
			c-0.096,1.699-2.07,4.27-3.661,4.695c-2.97,0.793-4.541-1.51-4.434-4.463c0.145-3.973,0.328-7.965,0.86-11.898
			c0.442-3.268-0.056-5.336-3.72-6.27C1313.942,666.548,1312.398,664.806,1310.708,663.636z"/>
		<path fill-rule="evenodd" clip-rule="evenodd" fill="#EF4EDC" d="M926.977,676.089c2.135-4.055,4.004-8.285,6.519-12.088
			c1.229-1.861,3.661-2.926,5.55-4.35c1.114,1.789,2.327,3.527,3.316,5.385c0.939,1.764,1.162,4.264,2.552,5.359
			c3.2,2.525,1.799,4.391-0.818,4.684c-3.141,0.354-6.445-0.756-10.821-1.402c-3.135,4.357-8.845,8.66-9.468,16.373
			c-0.146,1.799-2.149,3.445-3.298,5.162c-1.181-2.094-3.232-4.131-3.377-6.295c-0.42-6.281-0.354-12.633,0.134-18.908
			c0.152-1.963,2.197-5.322,3.465-5.363c3.806-0.127,4.547,3.047,4.31,6.387c-0.101,1.416-0.017,2.844-0.017,4.268
			C925.674,675.563,926.326,675.827,926.977,676.089z"/>
		<path fill-rule="evenodd" clip-rule="evenodd" fill="#EF4EDC" d="M905.686,659.563c0.236,4.764-0.231,9.316,4.388,11.904
			c0.161,0.09-0.935,3.951-1.876,4.166c-1.94,0.443-4.524,0.193-6.214-0.82c-3.646-2.186-5.731-0.445-7.353,2.303
			c-2.515,4.262-4.589,8.783-7.064,13.072c-0.808,1.398-2.281,2.414-3.451,3.607c-1.188-1.604-3.367-3.191-3.394-4.814
			c-0.117-7.254,0.236-14.527,0.778-21.768c0.103-1.367,1.734-3.551,2.841-3.67c1.32-0.141,3.65,1.238,4.103,2.484
			c1.039,2.855,1.203,6.031,1.982,10.607c3.209-4.617,8.561-6.287,8.604-12.402C899.06,660.11,901.75,659.501,905.686,659.563z"/>
		<path fill-rule="evenodd" clip-rule="evenodd" fill="#EF4EDC" d="M125.443,41.583c-5.979,4.314-12.978-1.15-18.768,4.715
			c1.712,0.535,2.811,1.022,3.958,1.205c1.798,0.286,3.716,0.077,5.429,0.593c4.004,1.206,8.199,2.623,8.552,7.71
			c0.347,4.991-3.823,6.593-7.382,7.331c-4.897,1.015-10.051,1.164-15.067,0.969c-1.232-0.048-2.356-2.866-3.53-4.411
			c1.832-0.668,3.715-2,5.486-1.864c3.441,0.264,6.792,1.596,10.236,1.971c1.289,0.14,2.734-1.156,4.108-1.798
			c-0.875-1.171-1.54-3.051-2.662-3.381c-3.615-1.065-7.372-1.797-11.124-2.199c-3.104-0.332-6.189-1.111-6.039-4.461
			c0.091-2.013,2.226-4.963,4.121-5.666c5.003-1.855,10.326-3.178,15.625-3.751C120.603,38.307,123.083,40.497,125.443,41.583z"/>
		<path fill-rule="evenodd" clip-rule="evenodd" fill="#EF4EDC" d="M1314.506,200.406c-2.992-9.693-3.17-10.012,4.365-14.314
			c12.484-7.129,23.998-16.065,37.731-20.89c4.929-1.731,10.068-2.862,15.454-3.487
			C1352.29,173.828,1329.132,180.481,1314.506,200.406z"/>
		<path fill-rule="evenodd" clip-rule="evenodd" fill="#EF4EDC" d="M202.498,39.034c0.783-0.668,1.299-1.396,1.992-1.657
			c6.39-2.413,6.307-2.366,4.578-9.176c-0.355-1.401-0.269-3.912,0.53-4.394c1.473-0.889,3.764-1.165,5.443-0.705
			c1.097,0.3,2.348,2.312,2.417,3.616c0.147,2.74-1.371,5.895-0.452,8.171c0.847,2.097,3.989,3.267,6.003,4.759
			c-0.145,0.528-0.142,0.777-0.235,0.821c-2.183,1.03-5.651,1.53-6.297,3.156c-1.295,3.256-1.052,7.126-1.43,10.744
			c-0.034,0.327,0.056,0.665,0.048,0.997c-0.068,2.566,1.866,6.435-2.608,6.623c-4.103,0.173-4.076-3.583-4.155-6.627
			c-0.026-0.993,0.054-2.005,0.226-2.985c0.821-4.686,2.303-9.576-4.5-11.273C203.472,40.956,203.117,39.89,202.498,39.034z"/>
		<path fill-rule="evenodd" clip-rule="evenodd" fill="#EF4EDC" d="M89.64,64.882c-3.577,0.666-5.179-2.392-5.271-5.46
			c-0.18-5.943,0.428-11.919,0.917-17.864c0.074-0.895,1.405-2.481,1.915-2.392c1.337,0.236,3.486,1.06,3.636,1.936
			c0.675,3.944,1.146,8.006,0.959,11.991C91.624,56.735,90.514,60.333,89.64,64.882z"/>
		<path fill-rule="evenodd" clip-rule="evenodd" fill="#EF4EDC" d="M93.696,29.006c-2.161,2.003-3.293,3.052-4.424,4.101
			c-1.496-2.126-3.151-4.172-4.314-6.467c-0.174-0.343,2.576-2.873,2.93-2.66C89.727,25.089,91.227,26.758,93.696,29.006z"/>
		<path fill-rule="evenodd" clip-rule="evenodd" fill="#EF4EDC" d="M-3.373,538.532c0-3.336,0-5.791,0-8.424
			C1.019,532.216,1.229,535.05-3.373,538.532z"/>
	</g>
</g>
</svg>
