<?xml version="1.0" encoding="utf-8"?>
<!-- Generator: Adobe Illustrator 18.1.1, SVG Export Plug-In . SVG Version: 6.00 Build 0)  -->
<svg version="1.1" id="Layer_1" xmlns="http://www.w3.org/2000/svg" xmlns:xlink="http://www.w3.org/1999/xlink" x="0px" y="0px"
	 viewBox="0 0 97.7 79.2" enable-background="new 0 0 97.7 79.2" xml:space="preserve">
<g>
	<path fill="#EB3694" d="M37,72.5c-1.2-0.4-2.4-0.7-3.5-1.1c-0.6-0.2-1.1-0.6-1.7-1c-0.5-0.3-0.6-0.9-0.3-1.3
		c0.3-0.5,0.8-0.6,1.4-0.2c1.3,0.9,2.7,1.5,4.2,1.7c2.4,0.3,4.6-0.3,6.6-1.7c3.9-2.7,7.8-5.3,11.6-8c1.3-0.9,2.6-1.8,3.8-2.7
		c2-1.4,3.5-3.3,4.4-5.6c0.7-1.6,0.1-3.2-1.4-3.8c-1.5-0.6-3.1,0-3.7,1.6c-1.1,2.6-3,4.1-5.8,4.6c-3.9,0.8-8.1-2.3-8.6-6.3
		C44,48.2,44,47.6,44,47c0-9.9,0-19.7,0-29.6c0-1.6-0.8-2.7-2.3-3c-1.5-0.3-3.1,0.8-3.2,2.3c0,0.3,0,0.7,0,1c0,7.1,0,14.3,0,21.4
		c0,1.1-0.3,1.8-1.3,2.4c-1.8,1-2.6,2.6-2.5,4.6c0,0.7,0,1.4,0,2.1c0,0.3,0,0.7,0,1c0,0.7-0.4,1.1-1,1.1c-0.5,0-0.9-0.4-0.9-1.1
		c0-1.6,0-3.2,0-4.7c-1.8,0.5-3.6,2.6-3.7,4.5c0,4.5,0,8.9,0,13.4c0,1.4,0.6,2.6,1.3,3.8c0.3,0.4,0.3,0.9,0,1.3
		c-0.4,0.5-1.2,0.4-1.6-0.3c-1.1-1.7-1.6-3.6-1.6-5.5c0-4.2-0.1-8.3,0-12.5c0-2.2,1-4,2.9-5.3C32,42.6,34,41.3,36,40
		c0.4-0.3,0.6-0.5,0.6-1c0-7.2,0-14.4,0-21.6c0-2.5,1.5-4.4,3.9-4.9c2.5-0.5,5.2,1.4,5.4,4c0,0.4,0.1,0.8,0.1,1.2c0,5,0,10.1,0,15.1
		c0,0.2,0,0.5,0,0.8c0.3-0.1,0.5-0.1,0.6-0.2c7.2-2.5,15.1,0.7,18.4,7.6c1.3,2.6,1,4.4-1,6.6c0.8,0.7,1.4,1.6,1.7,2.7
		c0.2,1,0.1,2-0.3,3c-1.1,2.7-2.8,4.9-5.2,6.5C55,63.4,49.8,67,44.5,70.6c-1.4,1-3,1.6-4.8,1.8c-0.1,0-0.2,0.1-0.3,0.1
		C38.7,72.5,37.8,72.5,37,72.5z M46,42.5c0.2-0.2,0.4-0.3,0.5-0.5c1.7-1.5,3.7-2.2,5.9-1.9c2.9,0.4,4.9,2,6.1,4.7
		c0.7,1.5,2.2,2.2,3.7,1.6c1.4-0.6,2.1-2.2,1.5-3.7c-2.5-6.7-10.7-10.1-17.2-7.2c-0.4,0.2-0.5,0.4-0.5,0.8c0,1.8,0,3.7,0,5.5
		C45.9,42.1,45.9,42.3,46,42.5z M56.3,50.3c-1.9-0.4-2.9-1.8-3.7-3.5c-0.9-1.9-2.6-2.8-4.7-2.9c-0.4,0-0.7,0.1-0.9,0.5
		c-2.1,2.9-0.9,7.1,2.4,8.4C52,53.9,55.2,52.7,56.3,50.3z M50,42.3c0.1,0.1,0.2,0.1,0.3,0.2c2.1,0.8,3.6,2.2,4.4,4.3
		c0.1,0.3,0.3,0.6,0.5,0.9c0.5,0.6,1.1,1,1.8,0.9c0.4,0,0.8-0.5,1.1-0.6c-0.6-1-1.2-1.9-1.6-2.8C55.2,42.7,52.4,41.4,50,42.3z"/>
	<path fill="#EB3694" d="M71.9,8.7c0.5,0.3,0.6,0.8,0.6,1.3c0,3.6,0,7.2,0,10.8c0,0.2,0,0.6-0.1,0.7c-0.2,0.3-0.6,0.6-0.9,0.6
		c-0.3,0-0.7-0.4-0.8-0.7c-0.2-0.4-0.1-0.9-0.1-1.3c0-1.2,0-2.4,0-3.7c-1.1,0-2.1,0-3.2,0c0,0.2,0,0.4,0,0.7c0,1.3,0,2.6,0,3.9
		c0,0.7-0.4,1.1-1,1.1c-0.6,0-0.9-0.4-0.9-1.2c0-3.7,0-7.4,0-11.1c0-0.5,0.2-0.9,0.6-1.1c0.2,0,0.5,0,0.7,0c0.5,0.3,0.6,0.8,0.6,1.4
		c0,0.5,0,0.9,0,1.4c0,1,0,2,0,3c1.1,0,2.1,0,3.2,0c0-0.3,0-0.5,0-0.7c0-1.2,0-2.4,0-3.7c0-0.6,0.1-1,0.6-1.4
		C71.4,8.7,71.7,8.7,71.9,8.7z"/>
	<path fill="#EB3694" d="M63,8.7c0.5,0.3,0.6,0.8,0.6,1.4c0,3.6,0,7.1,0,10.7c0,0.1,0,0.1,0,0.2c0,0.8-0.4,1.2-1,1.2
		c-0.6,0-0.9-0.5-0.9-1.2c0-1,0-2,0-3.1c0-0.5,0-1,0-1.5c-1.1,0-2.1,0-3.3,0c0,0.9,0,1.7,0,2.6c0,0.7,0,1.4,0,2.1
		c0,0.7-0.4,1.1-0.9,1.1c-0.6,0-0.9-0.4-0.9-1.1c0-3.7,0-7.5,0-11.2c0-0.5,0.2-0.9,0.6-1.1c0.2,0,0.5,0,0.7,0
		c0.4,0.4,0.6,0.8,0.5,1.4c0,0.5,0,1,0,1.4c0,1,0,1.9,0,2.9c1.1,0,2.2,0,3.3,0c0-1.5,0-2.9,0-4.4c0-0.6,0.1-1,0.6-1.3
		C62.5,8.7,62.8,8.7,63,8.7z"/>
	<path fill="#EB3694" d="M52,8.7c0.6,0.4,1.2,0.6,1.8,1.1c0.7,0.6,1,1.4,1,2.3c0,0.6-0.4,1-0.9,1c-0.5,0-0.9-0.3-1-0.9
		c-0.2-1.1-0.9-1.8-1.8-1.6c-0.7,0.1-1.2,0.5-1.4,1.2c-0.2,0.7,0.1,1.3,0.6,1.7c1,0.8,2.1,1.6,3.1,2.4c1.4,1.1,1.7,2.9,0.9,4.4
		c-0.8,1.4-2.4,2.1-4,1.7c-1.5-0.4-2.6-1.8-2.6-3.3c0-0.6,0.3-1,0.9-1.1c0.5,0,0.9,0.3,1,1c0.1,0.9,0.6,1.5,1.5,1.6
		c0.7,0.1,1.4-0.3,1.6-1c0.3-0.7,0.1-1.5-0.6-2c-0.9-0.7-1.7-1.3-2.6-2c-1.3-0.9-1.9-2.1-1.7-3.6c0.2-1.5,1.2-2.4,2.6-2.8
		c0,0,0.1-0.1,0.1-0.1C51,8.7,51.5,8.7,52,8.7z"/>
</g>
</svg>
