<?xml version="1.0" encoding="utf-8"?>
<!-- Generator: Adobe Illustrator 18.1.1, SVG Export Plug-In . SVG Version: 6.00 Build 0)  -->
<svg version="1.1" id="Layer_1" xmlns="http://www.w3.org/2000/svg" xmlns:xlink="http://www.w3.org/1999/xlink" x="0px" y="0px"
	 viewBox="0 0 97.7 79.2" enable-background="new 0 0 97.7 79.2" xml:space="preserve">
<g>
	<path fill="#EB3694" d="M51.6,7.7C53,8,54.4,8.1,55.8,8.5c4.3,1.2,7.8,3.6,10.5,7.1c3.2,4.1,4.7,8.8,4.5,14
		c-0.1,3.6-1.2,7-3.2,10.1c-2.2,3.4-4.4,6.8-6.5,10.2c-0.1,0.1-0.1,0.2-0.3,0.4c0.7,0.1,1.3,0.2,2,0.4c3.5,0.7,7,1.6,10.2,3.3
		c1.7,0.9,3.2,2,4.3,3.5c1.6,2.4,1.4,5.1-0.6,7.4c-1.1,1.3-2.6,2.2-4.1,3c-3.6,1.8-7.4,2.7-11.3,3.4c-4.5,0.7-9,1-13.6,0.9
		c-6.2-0.2-12.3-1-18.1-3.2c-1.9-0.8-3.8-1.7-5.4-3.1c-3.5-3.1-3.4-7.4,0.3-10.3c2.4-1.9,5.1-3,8-3.8c2-0.5,4-0.9,6-1.4
		c0.2,0,0.3-0.1,0.5-0.1c-0.1-0.2-0.2-0.4-0.3-0.6c-2.2-3.4-4.4-6.8-6.5-10.2c-2.6-4.3-3.6-8.9-2.9-13.9c1-6.8,4.6-11.9,10.6-15.3
		c2.4-1.4,5.1-2.2,7.9-2.5c0.2,0,0.4-0.1,0.6-0.1C49.6,7.7,50.6,7.7,51.6,7.7z M50.1,60.1c0.2-0.2,0.3-0.4,0.4-0.6
		c4.1-6.5,8.3-12.9,12.4-19.4c0.9-1.4,1.9-2.8,2.5-4.3c3-6.8,2.1-13.1-2.8-18.7c-3.8-4.3-8.8-6.1-14.5-5.5c-4.9,0.6-8.8,3-11.7,6.9
		c-4,5.4-4.3,13.3-0.7,19c4.7,7.3,9.4,14.7,14.1,22C49.8,59.7,49.9,59.9,50.1,60.1z M51.5,68.4c1.5-0.1,4.6-0.3,7.6-0.6
		c3.5-0.4,6.9-1.2,10.2-2.5c1.7-0.7,3.4-1.5,4.6-2.9c0.9-1,1-2,0-3c-0.7-0.7-1.6-1.4-2.5-1.9c-3.8-2.1-7.9-2.9-12.2-3.6
		c-0.6-0.1-0.8,0.1-1.1,0.5c-2.1,3.3-4.2,6.7-6.4,10c-0.3,0.4-0.8,0.9-1.2,1.1c-0.9,0.4-1.7-0.1-2.3-1c-2.2-3.4-4.3-6.8-6.5-10.2
		c-0.2-0.3-0.4-0.5-0.8-0.4c-1.3,0.3-2.6,0.4-4,0.7c-2.9,0.6-5.8,1.4-8.4,2.9c-0.9,0.5-1.7,1.2-2.5,1.9c-1,1-0.9,2,0,3
		c0.4,0.4,0.9,0.9,1.4,1.2c2,1.4,4.2,2.2,6.5,2.8C39.3,67.9,44.7,68.4,51.5,68.4z"/>
	<path fill="#EB3694" d="M59.5,28.6c0,5.2-4.2,9.4-9.5,9.4c-5.2,0-9.5-4.2-9.4-9.5c0-5.2,4.3-9.4,9.5-9.4
		C55.3,19.2,59.5,23.4,59.5,28.6z M44.4,28.5c0,2.9,2.1,5.6,5.6,5.7c2.9,0.1,5.6-2,5.7-5.5c0.1-3-2.1-5.7-5.6-5.8
		C47.2,22.9,44.6,25.1,44.4,28.5z"/>
</g>
</svg>
